<?xml version="1.0" encoding="utf-8"?>
<svg version="1.1" id="Layer_1" xmlns="http://www.w3.org/2000/svg" xmlns:xlink="http://www.w3.org/1999/xlink" x="0px" y="0px"
	 viewBox="0 0 100 100" style="enable-background:new 0 0 100 100;" xml:space="preserve">
<style type="text/css">
	.st0{fill:#333f4d;}
</style>
<path class="st0" d="M65,66.7v-5.8c-0.6,0.5-1.2,1.1-1.8,1.5c-2.7,2-5.5,3.4-8.2,4.2v1.8c0,2.8-2.2,5-5,5c-2.8,0-5-2.2-5-5v-1.8
	c-2.8-0.8-5.6-2.2-8.3-4.2c-0.6-0.4-1.1-1-1.7-1.5v5.8c-9.6,5.7-26.7,4-26.7,15.7c0,4.7,0,3.1,0,6.4C8.3,92.4,27.5,100,50,100
	s41.7-7.6,41.7-11.2c0-3.3,0-1.7,0-6.4C91.7,70.6,74.6,72.3,65,66.7z M41.7,90.8c-2.3,0-4.2-1.9-4.2-4.2s1.9-4.2,4.2-4.2
	c2.3,0,4.2,1.9,4.2,4.2S44,90.8,41.7,90.8z M58.3,90.8c-2.3,0-4.2-1.9-4.2-4.2s1.9-4.2,4.2-4.2c2.3,0,4.2,1.9,4.2,4.2
	S60.6,90.8,58.3,90.8z M41.7,40c-1.8,0-3.3-1.5-3.3-3.3c0-1.8,1.5-3.3,3.3-3.3c1.8,0,3.3,1.5,3.3,3.3C45,38.5,43.5,40,41.7,40z
	 M61.7,36.7c0,1.8-1.5,3.3-3.3,3.3c-1.8,0-3.3-1.5-3.3-3.3c0-1.8,1.5-3.3,3.3-3.3C60.2,33.3,61.7,34.8,61.7,36.7z M50,13
	c-11.5,0-21.7,4.7-21.7,4.7V8.2c0-2.2,1.4-4.1,3.5-4.9C35.7,1.9,42.6,0,50,0c7.4,0,14.3,1.9,18.2,3.3C70.3,4,71.7,6,71.7,8.2v9.5
	C71.7,17.7,61.5,13,50,13z M72.8,31.4c-0.5-3.2-1.1-4.7-1.1-4.7v-5c0,0-10.1-4.7-21.7-4.7c-11.5,0-21.7,4.7-21.7,4.7v5
	c0,0-0.7,3-0.7,4.4C26.1,32.3,25,34.3,25,38c0,5,1.8,6.9,4.2,7.9c2.2,5.5,5.8,10.1,9.9,13.2c3.5,2.6,7.3,4.2,10.9,4.2
	c3.5,0,7.3-1.5,10.8-4.2c4.1-3.1,7.7-7.7,9.9-13.3c2.5-1,4.2-2.9,4.2-7.9C75,34.6,74.1,32.6,72.8,31.4z M70.6,30.1
	C70.6,30.1,70.6,30.1,70.6,30.1C70.6,30.1,70.6,30.1,70.6,30.1C70.6,30.1,70.6,30.1,70.6,30.1z M69.1,41.9c-1.1,0.4-2,1.3-2.4,2.4
	c-1.8,4.6-4.8,8.6-8.5,11.4C55.4,57.8,52.5,59,50,59c-2.5,0-5.4-1.2-8.3-3.3c-3.6-2.7-6.6-6.8-8.4-11.3c-0.4-1.1-1.3-2-2.4-2.4
	c-0.7-0.3-1.5-0.6-1.5-3.9c0-3.2,0.9-3.6,1.6-3.8l0.2-0.1c5.9-1.4,8.6-6.8,9.9-10.5c1.4-0.2,2.9-0.4,4.4-0.5
	c1.9,1.3,4.6,2.6,8.3,3.4c6.3,1.3,11.8,0.8,14.6,6.8c0,0,0,0,0,0c0.2,0.4,0.3,0.7,0.6,0.8l0.2,0.1c0.8,0.3,1.6,0.6,1.6,3.8
	C70.7,41.3,69.8,41.6,69.1,41.9z M44.4,50.1c-0.2-0.2-0.2-0.4,0-0.6c0.1-0.2,0.4-0.3,0.6-0.2c1.2,0.4,2.9,0.7,5,0.7
	c2.1,0,3.8-0.4,5-0.7c0.2-0.1,0.5,0,0.6,0.2c0.1,0.2,0.1,0.5,0,0.6c-1.1,1.4-3.1,3.2-5.6,3.2C47.6,53.3,45.6,51.5,44.4,50.1z"/>
</svg>
