<?xml version="1.0" encoding="utf-8"?>
<svg version="1.1" xmlns="http://www.w3.org/2000/svg" xmlns:xlink="http://www.w3.org/1999/xlink" x="0px" y="0px"
	 viewBox="0 0 100 100" style="enable-background:new 0 0 100 100;" xml:space="preserve">
<style type="text/css">
	.st0{fill:#FFFFFF;}
</style>
<g id="Layer_2">
</g>
<g id="Layer_1">
	<g>
		<path class="st0" d="M52,0.1c4.1,0.2,8,0.9,11.2,1.7C59.6,0.8,55.9,0.2,52,0.1z"/>
		<path class="st0" d="M30.9,42c1.1,0.4,2,1.3,2.4,2.4c1.8,4.5,4.8,8.6,8.4,11.3c2.9,2.1,5.8,3.3,8.3,3.3s5.4-1.2,8.2-3.3
			c3.7-2.8,6.7-6.8,8.5-11.4c0.4-1.1,1.3-2,2.4-2.4c0.7-0.3,1.6-0.6,1.7-3.8c0-3.2-0.8-3.5-1.6-3.8L69,34.2
			c-0.3-0.1-0.4-0.4-0.6-0.8c-2.8-6-8.3-5.5-14.6-6.8c-3.7-0.8-6.4-2.1-8.3-3.4c-1.5,0.1-3,0.3-4.4,0.5c-1.3,3.7-4,9.1-9.9,10.5
			L31,34.3c-0.7,0.2-1.6,0.6-1.6,3.8C29.4,41.4,30.2,41.7,30.9,42z M58.4,33.4c1.8-0.1,3.3,1.4,3.3,3.3c0,1.8-1.5,3.3-3.3,3.3
			c-1.8,0-3.3-1.5-3.3-3.3C55.1,34.9,56.6,33.4,58.4,33.4z M50,50c2.1,0,3.8-0.4,5-0.7c0.2-0.1,0.5,0,0.6,0.2c0.1,0.2,0.1,0.5,0,0.6
			c-1.1,1.4-3.1,3.2-5.6,3.2c-2.4,0-4.4-1.8-5.6-3.2c-0.2-0.2-0.2-0.4,0-0.6c0.1-0.2,0.4-0.3,0.6-0.2C46.2,49.7,47.9,50,50,50z
			 M41.7,33.4c1.8,0,3.3,1.5,3.3,3.3c0,1.8-1.5,3.3-3.3,3.3s-3.3-1.5-3.3-3.3C38.4,34.9,39.9,33.4,41.7,33.4z"/>
		<path class="st0" d="M36.8,1.8C40,1,43.9,0.2,48,0.1C44.1,0.2,40.4,0.8,36.8,1.8z"/>
		<path class="st0" d="M45.9,86.6c0-2.3-1.9-4.2-4.2-4.2s-4.2,1.9-4.2,4.2s1.9,4.2,4.2,4.2S45.9,88.9,45.9,86.6z"/>
		<path class="st0" d="M62.5,86.6c0-2.3-1.9-4.2-4.2-4.2s-4.2,1.9-4.2,4.2s1.9,4.2,4.2,4.2S62.5,88.9,62.5,86.6z"/>
		<path class="st0" d="M35,66.7v-5.8c0.6,0.5,1.1,1.1,1.7,1.5c2.7,2,5.5,3.4,8.3,4.2v1.8c0,2.8,2.2,5,5,5s5-2.2,5-5v-1.8
			c2.7-0.8,5.5-2.2,8.2-4.2c0.6-0.4,1.2-1,1.8-1.5v5.8c8.4,4.9,22.6,4.2,26,11.9c5.7-8.1,9-18,9-28.6c0-20.7-12.6-38.5-30.6-46.1
			c1.4,0.9,2.3,2.6,2.3,4.3v9.5c0,0-10.2-4.7-21.7-4.7s-21.7,4.7-21.7,4.7V8.2c0-1.8,0.9-3.4,2.4-4.4C12.7,11.4,0,29.2,0,50
			c0,10.7,3.3,20.5,9,28.7C12.4,71,26.6,71.7,35,66.7z M27.6,31.1c0-1.4,0.7-4.4,0.7-4.4v-5c0,0,10.2-4.7,21.7-4.7
			c11.6,0,21.7,4.7,21.7,4.7v5c0,0,0.6,1.5,1.1,4.7c1.3,1.2,2.2,3.2,2.1,6.5c0,5-1.7,6.9-4.2,7.9c-2.2,5.6-5.8,10.2-9.9,13.3
			c-3.5,2.7-7.3,4.2-10.8,4.2c-3.6,0-7.4-1.6-10.9-4.2c-4.1-3.1-7.7-7.7-9.9-13.2C26.8,44.9,25,43,25,38
			C25,34.3,26.1,32.3,27.6,31.1z"/>
	</g>
</g>
</svg>
